<svg width="34" height="21" viewBox="0 0 34 21" fill="none" xmlns="http://www.w3.org/2000/svg">
<path fill-rule="evenodd" clip-rule="evenodd" d="M26.893 5.59027V9.19297H23.1946V11.7155H26.893V15.32H29.6661V11.7155H33.3635V9.10288H29.6661V5.59027H26.893ZM10.624 8.38252V12.4366H16.1702C15.8005 14.7789 13.6744 16.4906 10.624 16.4906C7.29628 16.4906 4.52318 13.6978 4.52318 10.4546C4.52318 7.21135 7.20384 4.41855 10.624 4.41855C12.1954 4.41855 13.4895 4.869 14.5988 5.95009L17.5568 3.0672C15.708 1.44558 13.3971 0.45459 10.624 0.45459C4.98536 0.45459 0.363525 4.95909 0.363525 10.4546C0.363525 15.9501 4.98536 20.4546 10.624 20.4546C16.6324 20.4546 20.5147 16.3104 20.5147 10.6348C20.5147 9.91405 20.4223 9.10324 20.3299 8.38252H10.624Z" fill="white"/>
</svg>
